<?xml version="1.0" standalone="no"?><!DOCTYPE svg PUBLIC "-//W3C//DTD SVG 1.1//EN" "http://www.w3.org/Graphics/SVG/1.1/DTD/svg11.dtd"><svg t="1758140216703" class="icon" viewBox="0 0 1024 1024" version="1.1" xmlns="http://www.w3.org/2000/svg" p-id="13585" width="48" height="48" xmlns:xlink="http://www.w3.org/1999/xlink"><path d="M175 958c0-8.8 150.9-16 337-16s337 7.2 337 16-150.9 16-337 16-337-7.2-337-16z" fill="#EEEFF3" p-id="13586"></path><path d="M497 181c0-6.6 5.4-12 12-12s12 5.4 12 12v127c0 6.6-5.4 12-12 12s-12-5.4-12-12V181z" fill="#FFC95C" p-id="13587"></path><path d="M444 299.7c0-8.7 7-15.7 15.7-15.7h97.7c8.7 0 15.7 7 15.7 15.7v62.7c0 8.7-7 15.7-15.7 15.7h-97.7c-8.7 0-15.7-7-15.7-15.7v-62.7z" fill="#FD0818" p-id="13588"></path><path d="M389 339.7c0-8.7 7-15.7 15.7-15.7h198.7c8.7 0 15.7 7 15.7 15.7v62.7c0 8.7-7 15.7-15.7 15.7H404.7c-8.7 0-15.7-7-15.7-15.7v-62.7z" fill="#FFC95C" p-id="13589"></path><path d="M189 528.5c0-7.5 6.1-13.5 13.5-13.5h181c7.5 0 13.5 6.1 13.5 13.5v259c0 7.5-6.1 13.5-13.5 13.5h-181c-7.5 0-13.5-6.1-13.5-13.5v-259z" fill="#761CE7" p-id="13590"></path><path d="M213 547.9c0-1.6 1.3-2.9 2.9-2.9h34.3c1.6 0 2.9 1.3 2.9 2.9v222.3c0 1.6-1.3 2.9-2.9 2.9h-34.3c-1.6 0-2.9-1.3-2.9-2.9V547.9zM273 547.8c0-1.5 1.2-2.8 2.8-2.8h33.4c1.5 0 2.8 1.2 2.8 2.8v222.4c0 1.5-1.2 2.8-2.8 2.8h-33.4c-1.5 0-2.8-1.2-2.8-2.8V547.8zM332 547.9c0-1.6 1.3-2.9 2.9-2.9h34.3c1.6 0 2.9 1.3 2.9 2.9v222.3c0 1.6-1.3 2.9-2.9 2.9h-34.3c-1.6 0-2.9-1.3-2.9-2.9V547.9z" fill="#FFFFFF" p-id="13591"></path><path d="M367 375.5c0-6.4 5.2-11.5 11.5-11.5h247c6.4 0 11.5 5.2 11.5 11.5v416c0 6.4-5.2 11.5-11.5 11.5h-247c-6.4 0-11.5-5.2-11.5-11.5v-416z" fill="#FE5F69" p-id="13592"></path><path d="M392 412.1c0-1.7 1.4-3.1 3.1-3.1h37.7c1.7 0 3.1 1.4 3.1 3.1v37.7c0 1.7-1.4 3.1-3.1 3.1h-37.7c-1.7 0-3.1-1.4-3.1-3.1v-37.7zM456 412.1c0-1.7 1.4-3.1 3.1-3.1h37.7c1.7 0 3.1 1.4 3.1 3.1v37.7c0 1.7-1.4 3.1-3.1 3.1h-37.7c-1.7 0-3.1-1.4-3.1-3.1v-37.7zM520 412.1c0-1.7 1.4-3.1 3.1-3.1h37.7c1.7 0 3.1 1.4 3.1 3.1v37.7c0 1.7-1.4 3.1-3.1 3.1h-37.7c-1.7 0-3.1-1.4-3.1-3.1v-37.7zM392 487.1c0-1.7 1.4-3.1 3.1-3.1h37.7c1.7 0 3.1 1.4 3.1 3.1v37.7c0 1.7-1.4 3.1-3.1 3.1h-37.7c-1.7 0-3.1-1.4-3.1-3.1v-37.7zM456 487.1c0-1.7 1.4-3.1 3.1-3.1h37.7c1.7 0 3.1 1.4 3.1 3.1v37.7c0 1.7-1.4 3.1-3.1 3.1h-37.7c-1.7 0-3.1-1.4-3.1-3.1v-37.7zM520 487.1c0-1.7 1.4-3.1 3.1-3.1h37.7c1.7 0 3.1 1.4 3.1 3.1v37.7c0 1.7-1.4 3.1-3.1 3.1h-37.7c-1.7 0-3.1-1.4-3.1-3.1v-37.7zM392 562.1c0-1.7 1.4-3.1 3.1-3.1h37.7c1.7 0 3.1 1.4 3.1 3.1v37.7c0 1.7-1.4 3.1-3.1 3.1h-37.7c-1.7 0-3.1-1.4-3.1-3.1v-37.7zM456 562.1c0-1.7 1.4-3.1 3.1-3.1h37.7c1.7 0 3.1 1.4 3.1 3.1v37.7c0 1.7-1.4 3.1-3.1 3.1h-37.7c-1.7 0-3.1-1.4-3.1-3.1v-37.7zM520 562.1c0-1.7 1.4-3.1 3.1-3.1h37.7c1.7 0 3.1 1.4 3.1 3.1v37.7c0 1.7-1.4 3.1-3.1 3.1h-37.7c-1.7 0-3.1-1.4-3.1-3.1v-37.7zM392 638.1c0-1.7 1.4-3.1 3.1-3.1h37.7c1.7 0 3.1 1.4 3.1 3.1v37.7c0 1.7-1.4 3.1-3.1 3.1h-37.7c-1.7 0-3.1-1.4-3.1-3.1v-37.7zM456 638.1c0-1.7 1.4-3.1 3.1-3.1h37.7c1.7 0 3.1 1.4 3.1 3.1v37.7c0 1.7-1.4 3.1-3.1 3.1h-37.7c-1.7 0-3.1-1.4-3.1-3.1v-37.7zM520 638.1c0-1.7 1.4-3.1 3.1-3.1h37.7c1.7 0 3.1 1.4 3.1 3.1v37.7c0 1.7-1.4 3.1-3.1 3.1h-37.7c-1.7 0-3.1-1.4-3.1-3.1v-37.7zM392 713.1c0-1.7 1.4-3.1 3.1-3.1h37.7c1.7 0 3.1 1.4 3.1 3.1v37.7c0 1.7-1.4 3.1-3.1 3.1h-37.7c-1.7 0-3.1-1.4-3.1-3.1v-37.7zM456 713.1c0-1.7 1.4-3.1 3.1-3.1h37.7c1.7 0 3.1 1.4 3.1 3.1v37.7c0 1.7-1.4 3.1-3.1 3.1h-37.7c-1.7 0-3.1-1.4-3.1-3.1v-37.7zM520 713.1c0-1.7 1.4-3.1 3.1-3.1h37.7c1.7 0 3.1 1.4 3.1 3.1v37.7c0 1.7-1.4 3.1-3.1 3.1h-37.7c-1.7 0-3.1-1.4-3.1-3.1v-37.7z" fill="#FFFFFF" p-id="13593"></path><path d="M572 405.8c0-4.9 4-8.8 8.8-8.8h189.3c4.9 0 8.8 4 8.8 8.8v387.3c0 4.9-4 8.8-8.8 8.8H580.8c-4.9 0-8.8-4-8.8-8.8V405.8z" fill="#7DDDE0" p-id="13594"></path><path d="M721.2 433c1.5 0 2.8 1.2 2.8 2.8v33.4c0 1.5-1.2 2.8-2.8 2.8H574.8c-1.5 0-2.8-1.2-2.8-2.8v-33.4c0-1.5 1.2-2.8 2.8-2.8h146.4zM721.1 494c1.6 0 2.9 1.3 2.9 2.9v34.3c0 1.6-1.3 2.9-2.9 2.9H574.9c-1.6 0-2.9-1.3-2.9-2.9v-34.3c0-1.6 1.3-2.9 2.9-2.9h146.2zM721.1 556c1.6 0 2.9 1.3 2.9 2.9v34.3c0 1.6-1.3 2.9-2.9 2.9H574.9c-1.6 0-2.9-1.3-2.9-2.9v-34.3c0-1.6 1.3-2.9 2.9-2.9h146.2zM721.1 618c1.6 0 2.9 1.3 2.9 2.9v34.3c0 1.6-1.3 2.9-2.9 2.9H574.9c-1.6 0-2.9-1.3-2.9-2.9v-34.3c0-1.6 1.3-2.9 2.9-2.9h146.2zM642.5 698h54c7.5 0 13.5 6 13.5 13.5V804h-81v-92.5c0-7.5 6-13.5 13.5-13.5z" fill="#FFFFFF" p-id="13595"></path><path d="M111 813.5c0-13 10.5-23.5 23.5-23.5h702c13 0 23.5 10.5 23.5 23.5S849.5 837 836.5 837h-702c-13 0-23.5-10.5-23.5-23.5z" fill="#474F66" p-id="13596"></path></svg>