<?xml version="1.0" standalone="no"?><!DOCTYPE svg PUBLIC "-//W3C//DTD SVG 1.1//EN" "http://www.w3.org/Graphics/SVG/1.1/DTD/svg11.dtd"><svg t="1758140135010" class="icon" viewBox="0 0 1024 1024" version="1.1" xmlns="http://www.w3.org/2000/svg" p-id="11302" width="32" height="32" xmlns:xlink="http://www.w3.org/1999/xlink"><path d="M556.872865 1023.325322h-90.771242l1.592242-189.220325c2.172465-11.752899 11.752899-23.519292 15.004849-32.640945v-298.207885c0-130.442336 26.244993-196.183007-22.480287-289.760911-19.741092-37.997892-56.672992-88.787687-103.158338-98.435589-25.637782-5.937171-33.099726 14.950875-57.752478 16.543116C242.06789 93.227071 159.676154 81.973435 96.107949 47.740249c-1.025511-12.319629-2.631246-27.850727 0-37.997892C102.045119-2.024035 110.033312 3.373392 113.231288 1.173941c37.431162 12.333122 75.429053 25.057559 112.860215 38.011385 112.860215 39.940966 188.761543 51.761332 246.500527 148.078431 19.282311 32.060721 30.46848 63.676154 40.048915 106.990512h1.619228c6.395952-87.24942 71.151592-168.966477 133.181531-204.333122 47.079064-15.517605 94.603416-32.074215 141.223698-47.59182 21.400801-7.988193 104.764073-44.960573 123.479654-39.603626 3.764706 3.197976 10.160658 4.803711 14.950875 21.400801-1.025511 10.160658-2.158971 19.741092-3.197976 29.955724-53.582964 8.446974-166.335231 54.999789-204.791904 82.108371-19.282311-3.710732-33.099726-28.242041-56.672992-22.83112-44.393844 9.593928-72.757327 52.96226-93.577904 87.195446-55.633987 93.577904-27.850727 168.899009-27.850727 304.253004v296.548177c2.617752 9.580434 12.319629 20.888046 14.950875 32.640944-0.121442 63.217373 0.458781 126.326797 1.025511 189.328274z m0 0" p-id="11303"></path><path d="M927.446764 24.963104c20.969007 92.9572-62.353785 146.432216-138.160658 146.432215-53.974278 0-93.753321-13.075269-132.088552-53.785367l-32.546489-17.609109a31.03521 31.03521 0 0 1 11.132195-6.476913c27.850727-10.201139 102.551128-35.150748 187.23677-65.754164 0 0 66.442336-28.997681 88.760699-25.179001 0 0 11.79338 5.208518 15.679528 22.331858z m0 0" fill="#FFC200" p-id="11304"></path><path d="M391.576639 101.593085c-20.348303-18.890997-278.64221-100.21674-278.642209-100.216741C92.802024-3.616277 92.694075 19.214843 93.490196 27.44592c0.121442 1.349357 0.080961 2.847143 0.121442 4.277462 0 1.92958 0 3.832174-0.080961 5.70778C88.497575 126.812566 158.029939 175.416403 231.178579 175.416403c53.515497 0 92.889732-12.953827 130.887624-53.272612 0 0 29.537424-20.240354 29.537423-20.537213z m0 0" fill="#040000" p-id="11305"></path></svg>